<?xml version="1.0" standalone="no"?>
<!DOCTYPE svg PUBLIC "-//W3C//DTD SVG 20010904//EN"
 "http://www.w3.org/TR/2001/REC-SVG-20010904/DTD/svg10.dtd">
<svg version="1.0" xmlns="http://www.w3.org/2000/svg"
 width="556.000000pt" height="556.000000pt" viewBox="0 0 556.000000 556.000000"
 preserveAspectRatio="xMidYMid meet">

<g transform="translate(0.000000,556.000000) scale(0.100000,-0.100000)"
fill="#000000" stroke="none">
<path d="M180 4755 l0 -625 625 0 625 0 0 625 0 625 -625 0 -625 0 0 -625z
m1080 -5 l0 -450 -450 0 -450 0 0 450 0 450 450 0 450 0 0 -450z"/>
<path d="M540 4750 l0 -270 270 0 270 0 0 270 0 270 -270 0 -270 0 0 -270z"/>
<path d="M2330 5290 l0 -90 -270 0 -270 0 0 -90 0 -90 -90 0 -90 0 0 -535 0
-535 180 0 180 0 0 -90 0 -90 -270 0 -270 0 0 90 0 90 -445 0 -445 0 0 -90 0
-90 270 0 270 0 0 -90 0 -90 90 0 90 0 0 -90 0 -90 -90 0 -90 0 0 -90 0 -90
90 0 90 0 0 -90 0 -90 -90 0 -90 0 0 -90 0 -90 90 0 90 0 0 -90 0 -90 -90 0
-90 0 0 -180 0 -180 -90 0 -90 0 0 90 0 90 -90 0 -90 0 0 180 0 180 90 0 90 0
0 360 0 360 -90 0 -90 0 0 -90 0 -90 -90 0 -90 0 0 90 0 90 -90 0 -90 0 0 180
0 180 -90 0 -90 0 0 -360 0 -360 90 0 90 0 0 -90 0 -90 180 0 180 0 0 -90 0
-90 -180 0 -180 0 0 -90 0 -90 -90 0 -90 0 0 -540 0 -540 90 0 90 0 0 270 0
270 90 0 90 0 0 180 0 180 90 0 90 0 0 -180 0 -180 180 0 180 0 0 -180 0 -180
-90 0 -90 0 0 90 0 90 -180 0 -180 0 0 -180 0 -180 270 0 270 0 0 90 0 90 90
0 90 0 0 -90 0 -90 85 0 85 0 0 90 0 90 90 0 90 0 0 -180 0 -180 90 0 90 0 0
90 0 90 90 0 90 0 0 -90 0 -90 90 0 90 0 0 -85 0 -85 90 0 90 0 0 85 0 85 90
0 90 0 0 180 0 180 90 0 90 0 0 -90 0 -90 180 0 180 0 0 -90 0 -90 -90 0 -90
0 0 -85 0 -85 -90 0 -90 0 0 -90 0 -90 90 0 90 0 0 -90 0 -90 -180 0 -180 0 0
-360 0 -360 270 0 270 0 0 90 0 90 90 0 90 0 0 -90 0 -90 90 0 90 0 0 90 0 90
90 0 90 0 0 -90 0 -90 90 0 90 0 0 90 0 90 180 0 180 0 0 90 0 90 85 0 85 0 0
-90 0 -90 90 0 90 0 0 -90 0 -90 90 0 90 0 0 90 0 90 90 0 90 0 0 -90 0 -90
90 0 90 0 0 90 0 90 90 0 90 0 0 180 0 180 90 0 90 0 0 90 0 90 -180 0 -180 0
0 90 0 90 180 0 180 0 0 90 0 90 -180 0 -180 0 0 85 0 85 180 0 180 0 0 180 0
180 -90 0 -90 0 0 90 0 90 -90 0 -90 0 0 270 0 270 90 0 90 0 0 90 0 90 -90 0
-90 0 0 90 0 90 -180 0 -180 0 0 90 0 90 180 0 180 0 0 90 0 90 90 0 90 0 0
90 0 90 -90 0 -90 0 0 -90 0 -90 -90 0 -90 0 0 90 0 90 -90 0 -90 0 0 -180 0
-180 -625 0 -625 0 0 90 0 90 90 0 90 0 0 90 0 90 -90 0 -90 0 0 -90 0 -90
-90 0 -90 0 0 90 0 90 -90 0 -90 0 0 90 0 90 -180 0 -180 0 0 90 0 90 -90 0
-90 0 0 265 0 265 -90 0 -90 0 0 90 0 90 -90 0 -90 0 0 180 0 180 90 0 90 0 0
90 0 90 90 0 90 0 0 180 0 180 -90 0 -90 0 0 -90z m-360 -540 l0 -90 -90 0
-90 0 0 90 0 90 90 0 90 0 0 -90z m180 -360 l0 -90 90 0 90 0 0 -85 0 -85 -90
0 -90 0 0 85 0 85 -90 0 -90 0 0 -85 0 -85 -90 0 -90 0 0 175 0 175 180 0 180
0 0 -90z m180 -530 l0 -90 90 0 90 0 0 -180 0 -180 -90 0 -90 0 0 -360 0 -360
90 0 90 0 0 270 0 270 90 0 90 0 0 90 0 90 90 0 90 0 0 -90 0 -90 180 0 180 0
0 -90 0 -90 90 0 90 0 0 -90 0 -90 180 0 180 0 0 -270 0 -270 -180 0 -180 0 0
90 0 90 -90 0 -90 0 0 -90 0 -90 -90 0 -90 0 0 -90 0 -90 -90 0 -90 0 0 90 0
90 -180 0 -180 0 0 -270 0 -270 -180 0 -180 0 0 180 0 180 -90 0 -90 0 0 -90
0 -90 -90 0 -90 0 0 -90 0 -90 -90 0 -90 0 0 90 0 90 90 0 90 0 0 180 0 180
360 0 360 0 0 90 0 90 -90 0 -90 0 0 90 0 90 -180 0 -180 0 0 -90 0 -90 -90 0
-90 0 0 90 0 90 -90 0 -90 0 0 90 0 90 -175 0 -175 0 0 90 0 90 175 0 175 0 0
90 0 90 90 0 90 0 0 90 0 90 -90 0 -90 0 0 90 0 90 90 0 90 0 0 -90 0 -90 90
0 90 0 0 180 0 180 90 0 90 0 0 90 0 90 90 0 90 0 0 -90z m-900 -180 l0 -90
-85 0 -85 0 0 90 0 90 85 0 85 0 0 -90z m-890 -360 l0 -90 -90 0 -90 0 0 90 0
90 90 0 90 0 0 -90z m890 0 l0 -90 -85 0 -85 0 0 90 0 90 85 0 85 0 0 -90z
m2870 -540 l0 -90 360 0 360 0 0 -90 0 -90 -180 0 -180 0 0 -90 0 -90 90 0 90
0 0 -180 0 -180 90 0 90 0 0 -90 0 -90 -90 0 -90 0 0 -90 0 -90 -90 0 -90 0 0
90 0 90 -90 0 -90 0 0 90 0 90 -90 0 -90 0 0 -90 0 -90 -175 0 -175 0 0 180 0
180 90 0 90 0 0 -90 0 -90 85 0 85 0 0 90 0 90 90 0 90 0 0 -90 0 -90 90 0 90
0 0 180 0 180 -265 0 -265 0 0 90 0 90 -90 0 -90 0 0 90 0 90 90 0 90 0 0 90
0 90 85 0 85 0 0 -90z m-2870 -180 l0 -90 -85 0 -85 0 0 90 0 90 85 0 85 0 0
-90z m180 -360 l0 -90 -175 0 -175 0 0 90 0 90 175 0 175 0 0 -90z m2160 -450
l0 -360 -90 0 -90 0 0 -85 0 -85 -90 0 -90 0 0 -90 0 -90 180 0 180 0 0 -90 0
-90 445 0 445 0 0 180 0 180 180 0 180 0 0 -90 0 -90 -90 0 -90 0 0 -90 0 -90
-90 0 -90 0 0 -90 0 -90 -265 0 -265 0 0 -90 0 -90 -180 0 -180 0 0 180 0 180
-90 0 -90 0 0 -180 0 -180 -90 0 -90 0 0 -90 0 -90 -90 0 -90 0 0 90 0 90 90
0 90 0 0 90 0 90 -90 0 -90 0 0 90 0 90 90 0 90 0 0 90 0 90 -270 0 -270 0 0
90 0 90 90 0 90 0 0 85 0 85 90 0 90 0 0 -85 0 -85 90 0 90 0 0 85 0 85 90 0
90 0 0 180 0 180 -180 0 -180 0 0 -90 0 -90 -90 0 -90 0 0 90 0 90 -180 0
-180 0 0 90 0 90 270 0 270 0 0 90 0 90 270 0 270 0 0 -360z m-2340 90 l0 -90
-85 0 -85 0 0 90 0 90 85 0 85 0 0 -90z m3050 -535 l0 -265 -265 0 -265 0 0
265 0 265 265 0 265 0 0 -265z m-1430 -535 l0 -90 -90 0 -90 0 0 -90 0 -90
-90 0 -90 0 0 90 0 90 90 0 90 0 0 90 0 90 90 0 90 0 0 -90z m1610 -360 l0
-90 -90 0 -90 0 0 90 0 90 90 0 90 0 0 -90z m360 0 l0 -90 -90 0 -90 0 0 90 0
90 90 0 90 0 0 -90z"/>
<path d="M2150 3590 l0 -180 -90 0 -90 0 0 -90 0 -90 -90 0 -90 0 0 -270 0
-270 90 0 90 0 0 90 0 90 90 0 90 0 0 270 0 270 90 0 90 0 0 180 0 180 -90 0
-90 0 0 -180z"/>
<path d="M2690 3140 l0 -90 90 0 90 0 0 90 0 90 -90 0 -90 0 0 -90z"/>
<path d="M3050 2960 l0 -90 -90 0 -90 0 0 -90 0 -90 -90 0 -90 0 0 -90 0 -90
90 0 90 0 0 -90 0 -90 90 0 90 0 0 90 0 90 90 0 90 0 0 270 0 270 -90 0 -90 0
0 -90z"/>
<path d="M4130 2600 l0 -90 85 0 85 0 0 90 0 90 -85 0 -85 0 0 -90z"/>
<path d="M4130 1345 l0 -85 85 0 85 0 0 85 0 85 -85 0 -85 0 0 -85z"/>
<path d="M2690 5290 l0 -90 90 0 90 0 0 -180 0 -180 -180 0 -180 0 0 -90 0
-90 90 0 90 0 0 -90 0 -90 90 0 90 0 0 -90 0 -90 -90 0 -90 0 0 -85 0 -85 90
0 90 0 0 85 0 85 90 0 90 0 0 -175 0 -175 90 0 90 0 0 -90 0 -90 90 0 90 0 0
90 0 90 -90 0 -90 0 0 175 0 175 90 0 90 0 0 -85 0 -85 90 0 90 0 0 175 0 175
90 0 90 0 0 -265 0 -265 -90 0 -90 0 0 -180 0 -180 90 0 90 0 0 -180 0 -180
90 0 90 0 0 90 0 90 175 0 175 0 0 -90 0 -90 90 0 90 0 0 90 0 90 -90 0 -90 0
0 90 0 90 180 0 180 0 0 90 0 90 180 0 180 0 0 90 0 90 -445 0 -445 0 0 -90 0
-90 -90 0 -90 0 0 -90 0 -90 -90 0 -90 0 0 180 0 180 90 0 90 0 0 445 0 445
-90 0 -90 0 0 90 0 90 90 0 90 0 0 180 0 180 -180 0 -180 0 0 -90 0 -90 -90 0
-90 0 0 90 0 90 -180 0 -180 0 0 -90 0 -90 -90 0 -90 0 0 90 0 90 -90 0 -90 0
0 -90z m720 -180 l0 -90 90 0 90 0 0 90 0 90 90 0 90 0 0 -90 0 -90 -90 0 -90
0 0 -90 0 -90 90 0 90 0 0 -90 0 -90 -90 0 -90 0 0 -90 0 -90 -180 0 -180 0 0
-90 0 -90 -90 0 -90 0 0 90 0 90 -90 0 -90 0 0 90 0 90 90 0 90 0 0 180 0 180
90 0 90 0 0 90 0 90 90 0 90 0 0 -90z"/>
<path d="M3230 4750 l0 -90 -90 0 -90 0 0 -90 0 -90 90 0 90 0 0 90 0 90 90 0
90 0 0 90 0 90 -90 0 -90 0 0 -90z"/>
<path d="M4130 4755 l0 -625 625 0 625 0 0 625 0 625 -625 0 -625 0 0 -625z
m1070 -5 l0 -450 -450 0 -450 0 0 450 0 450 450 0 450 0 0 -450z"/>
<path d="M4480 4750 l0 -270 270 0 270 0 0 270 0 270 -270 0 -270 0 0 -270z"/>
<path d="M5200 3680 l0 -90 90 0 90 0 0 90 0 90 -90 0 -90 0 0 -90z"/>
<path d="M5200 2960 l0 -90 90 0 90 0 0 90 0 90 -90 0 -90 0 0 -90z"/>
<path d="M5200 2240 l0 -90 90 0 90 0 0 90 0 90 -90 0 -90 0 0 -90z"/>
<path d="M180 805 l0 -625 625 0 625 0 0 625 0 625 -625 0 -625 0 0 -625z
m1080 5 l0 -450 -450 0 -450 0 0 450 0 450 450 0 450 0 0 -450z"/>
<path d="M540 810 l0 -270 270 0 270 0 0 270 0 270 -270 0 -270 0 0 -270z"/>
<path d="M1610 900 l0 -360 90 0 90 0 0 -90 0 -90 -90 0 -90 0 0 -90 0 -90 90
0 90 0 0 90 0 90 90 0 90 0 0 -90 0 -90 90 0 90 0 0 90 0 90 90 0 90 0 0 90 0
90 -180 0 -180 0 0 90 0 90 -90 0 -90 0 0 90 0 90 90 0 90 0 0 90 0 90 -90 0
-90 0 0 90 0 90 -90 0 -90 0 0 -360z"/>
</g>
</svg>
